<svg width="114" height="161" viewBox="0 0 114 161" fill="none" xmlns="http://www.w3.org/2000/svg">
<path d="M70.1783 0.503188C72.5891 -0.913131 75.6149 0.828922 75.6149 3.62615V5.75063C75.6149 8.00966 77.2127 13.7812 78.1883 15.934C80.1113 20.1546 86.3681 23.3626 89.599 27.1512C97.998 37.0088 90.9069 53.1478 100.465 64.0251C107.337 71.8432 110.653 74.4917 112.548 85.6736C116.726 110.268 112.845 143.02 88.2205 155.47C69.0259 165.179 32.3336 161.872 16.0165 147.375C0.363891 133.474 -3.58817 106.777 3.1635 87.5572C9.73843 68.8335 30.2126 65.5476 43.6311 54.0542C44.1189 53.6364 44.4866 53.0911 44.6987 52.4821C48.3113 42.1288 50.1707 30.1609 58.5484 22.4207C61.0511 20.1121 65.4132 18.1859 67.0675 15.3108C68.8845 12.1524 68.9906 7.86804 68.425 4.12187C68.2058 2.67723 68.9199 1.25385 70.1783 0.517365V0.503188Z" fill="#2265C9"/>
</svg>
