<svg width="184" height="172" viewBox="0 0 184 172" fill="none" xmlns="http://www.w3.org/2000/svg">
<path d="M125.667 107.792C128.54 132.055 109.98 133.635 90.5946 131.857C83.4349 131.2 40.5146 116.676 45.4432 135.413C47.4451 143.022 102.316 150.532 71.8204 167.277C38.9788 185.312 7.95583 147.96 1.88113 118.18C-1.17532 103.205 -3.36833 57.9088 19.3487 59.1681C47.2236 60.7098 14.4966 118.309 20.8158 124.843C39.5137 123.568 44.5415 88.0481 47.3306 72.1961C50.3488 55.062 47.6515 9.36075 78.0785 15.1459C103.157 19.916 56.4464 79.4924 69.8948 88.0175C75.3353 89.2234 82.3193 88.2389 86.583 84.606C103.607 70.1049 91.4963 -10.582 131.245 1.16388C158.264 9.15472 115.627 50.8109 120.777 66.4034C129.572 75.2108 184.122 30.3339 184 62.7628C183.87 96.6113 96.8069 84.7663 80.4396 100.389C56.9584 122.812 123.574 105.701 125.667 107.8L125.667 107.792Z" fill="#F584B5"/>
</svg>
