<svg width="162" height="174" viewBox="0 0 162 174" fill="none" xmlns="http://www.w3.org/2000/svg">
<path d="M14.6428 11.6819C30.7449 -3.64319 60.133 -3.73322 76.9166 10.4891C92.7715 23.9239 84.361 45.1899 99.2872 55.7067C108.641 62.2928 123.508 60.74 134.869 64.6482C154.91 71.5493 171.26 94.1881 156.004 113.991C138.756 136.39 115.644 105.23 100.089 111.816C90.3749 115.927 86.1209 140.493 82.3912 149.405C63.2935 195.095 -17.7785 170.941 3.54365 127.329C12.0815 109.858 35.9799 108.861 39.425 101.802C47.3337 85.6067 21.8476 77.5578 13.3322 71.0542C-5.65323 56.5393 -1.26449 26.8119 14.6353 11.6894L14.6428 11.6819Z" fill="#E40000"/>
</svg>
