<svg width="200" height="216" viewBox="0 0 200 216" fill="none" xmlns="http://www.w3.org/2000/svg">
<path fill-rule="evenodd" clip-rule="evenodd" d="M75.2763 174.272C73.5827 160.775 53.1299 134.974 62.3054 123.738C71.4884 115.084 96.1929 133.179 110.053 131.016C133.238 130.163 141.949 106.984 137.137 87.8159C134.979 77.0618 129.093 66.9619 125.293 56.4121C121.169 45.4725 120.217 29.8481 136.995 34.5591C146.172 37.2641 154.253 43.1887 163.168 49.3311C172.853 55.85 183.137 64.7655 193.894 61.8854C197.768 60.3143 199.183 56.7445 199.153 52.5324C197.994 36.3177 183.3 22.8109 171.255 13.2027L171.003 13.0153C153.296 -0.839219 123.273 -5.14041 104.628 12.5288C88.1609 28.9851 89.3521 52.6744 98.731 70.7597C101.848 78.3626 109.917 88.8892 106.716 96.1323C100.345 104.462 80.6195 92.861 71.9499 91.3614C64.8927 89.4526 56.8725 89.1544 50.2934 91.8316C36.1444 97.4252 26.7899 113.816 27.9702 128.264C28.7927 144.452 43.1697 159.518 47.714 172.757C49.7718 178.085 49.3815 186.248 41.6261 186.274C31.2076 187.727 3.50588 163.347 0.932559 183.526C2.45972 207.932 39.4649 220.99 59.1251 212.614C74.8283 206.645 79.1985 188.581 75.2798 174.259L75.2763 174.272ZM190.464 46.1486L190.733 46.3265C198.077 51.5112 189.02 61.0361 182.038 57.4743C173.315 52.7195 182.734 40.9652 190.464 46.1486Z" fill="#E40000"/>
</svg>
