<svg width="158" height="158" viewBox="0 0 158 158" fill="none" xmlns="http://www.w3.org/2000/svg">
<path d="M105.406 57.7408C114.748 49.7975 110.544 29.8873 128.567 21.7173C153.021 10.6287 164.327 37.0278 154.419 57.2969C148.412 69.5755 128.831 79.2473 128.028 90.9215C127.074 104.749 146.069 116.98 149.46 130.846C154.75 152.513 129.133 163.724 114.993 147.195C107.645 138.6 105.359 117.944 89.9249 119.474C74.7742 120.976 72.6962 146.95 58.3485 154.874C41.3276 164.272 25.393 151.2 38.9285 132.688C45.8804 123.176 67.5673 113.335 45.8614 104.862C32.2504 99.5448 2.86538 101.793 0.173399 82.2509C-2.6886 61.4433 30.6447 62.6428 43.5284 69.5944C49.6869 72.9191 67.0572 94.605 69.5225 76.8577C71.8178 60.3288 49.9986 41.0136 49.9703 22.6618C49.9325 -6.4858 92.3996 -10.0183 96.0456 26.8554C96.839 34.8365 94.3832 49.2403 96.3384 55.8046C96.839 57.4858 98.1897 58.7609 99.8238 59.3748C101.675 59.8188 103.98 58.9687 105.406 57.7597V57.7408Z" fill="#F584B5"/>
</svg>
