<svg width="175" height="151" viewBox="0 0 175 151" fill="none" xmlns="http://www.w3.org/2000/svg">
<path d="M90.2123 133.683C88.6069 101.284 43.1301 126.647 23.3697 124.47C2.73714 122.204 -10.9981 95.0392 11.8147 94.9501C30.3066 94.8808 56.5383 122.036 71.978 100.749C56.0428 89.0421 34.8751 99.7497 20.7931 81.4914C11.5372 69.4974 2.31102 21.0065 23.0823 18.8491C39.0968 17.1866 40.0878 59.3736 46.5392 71.6844C52.4752 83.0154 63.8618 84.8758 65.3879 71.2984C67.0429 56.5532 57.6482 44.0347 61.6617 24.5196C65.2987 6.78579 83.6618 -11.0767 98.3286 8.59677C119.07 36.4246 60.5717 56.5137 89.5087 81.2143C102.411 84.5691 106.128 45.4003 109.616 36.0584C111.905 29.9229 119.655 15.3657 125.997 13.624C132.032 11.9615 142.586 18.0674 144.36 23.9852C151.079 46.3801 119.021 64.7967 111.915 83.7675C99.3394 117.355 131.329 120.818 135.253 102.54C137.384 92.6146 132.072 78.2554 146.481 75.0688C165.251 70.9224 178.986 92.9412 173.951 109.398C171.117 118.681 144.648 118.523 134.817 122.55C110.785 132.367 88.4583 174.04 59.2834 133.802C65.487 116.83 78.5681 137.028 90.2222 133.674L90.2123 133.683Z" fill="#FB5E00"/>
</svg>
