<svg width="157" height="223" viewBox="0 0 157 223" fill="none" xmlns="http://www.w3.org/2000/svg">
<path d="M105.135 41.7412C103.864 57.9406 83.8507 82.6131 94.3236 98.1882C103.915 112.453 163.105 115.728 156.485 143.256C151.023 165.994 118.846 164.858 104.305 150.92C96.6805 143.614 84.3836 121.008 72.0149 133.34C56.1825 149.14 101.241 198.045 80.7867 218.726C62.7307 236.983 64.3292 191.24 61.6137 184.762C53.7129 165.912 45.9351 184.486 39.7559 190.493C16.2994 213.313 0.477283 179.39 22.4479 161.604C28.8833 156.385 47.8513 153.284 47.8001 143.471C47.7591 135.223 40.2169 129.635 33.9455 125.419C22.7245 117.867 6.97415 120.292 1.47126 107.961C-7.14687 88.6405 24.3334 69.1153 37.8498 88.9066C44.7668 99.0375 41.4877 114.449 51.7351 121.09C60.7529 120.671 63.6324 94.8112 61.7981 87.9549C57.2277 70.855 34.2324 64.8276 33.5766 42.9078C33.1769 29.584 43.8958 13.1084 54.2765 5.44365C77.9994 -12.0962 107.133 16.1682 105.124 41.7208L105.135 41.7412Z" fill="#005A59"/>
</svg>
