<svg width="151" height="154" viewBox="0 0 151 154" fill="none" xmlns="http://www.w3.org/2000/svg">
<path d="M3.13789 144.932C-2.32452 138.427 -0.0673808 127.176 5.40342 121.302C12.3342 113.854 34.637 115.891 38.975 105.515C44.127 93.1865 32.2624 83.711 45.8471 67.0825C58.92 51.0768 77.9083 60.342 84.9482 50.9674C89.9743 44.2689 87.9857 29.6517 89.6303 21.6993C94.3459 -1.08063 147.082 -8.94043 150.598 12.9223C154.198 35.2899 132.558 27.5227 128.421 37.2254C122.606 50.8749 136.787 68.5636 119.846 84.9312C103.492 100.727 75.131 81.0434 71.5313 101.055C68.5274 117.809 74.7534 125.476 60.9421 141.254C48.5573 155.409 15.2626 159.364 3.13789 144.923V144.932Z" fill="#E6E6D1"/>
</svg>
