<svg width="185" height="144" viewBox="0 0 185 144" fill="none" xmlns="http://www.w3.org/2000/svg">
<path fill-rule="evenodd" clip-rule="evenodd" d="M66.4425 16.9205C71.755 22.0627 81.0625 17.6429 81.7637 10.7051C82.3693 6.10467 77.6731 0.845545 72.9982 0.484312C64.5832 -0.44002 59.6213 10.9494 66.0494 16.5486L66.4425 16.9098V16.9205Z" fill="#FCC117"/>
<path fill-rule="evenodd" clip-rule="evenodd" d="M120.747 18.8541C123.881 18.716 127.345 12.9257 126.452 7.93219C125.985 3.55489 121.31 -2.87295 116.975 1.73808L116.667 2.08871C112.364 6.57225 113.511 18.1848 120.757 18.8648L120.747 18.8541Z" fill="#FCC117"/>
<path fill-rule="evenodd" clip-rule="evenodd" d="M168.325 2.57756L167.847 2.84317C156.776 9.94034 167.135 29.0007 179.396 21.011C192.38 13.9989 180.32 -3.62715 168.325 2.57756Z" fill="#FCC117"/>
<path fill-rule="evenodd" clip-rule="evenodd" d="M13.1904 18.3123C17.6847 19.1729 21.6691 15.5924 20.851 12.0332C19.4697 6.30658 10.5341 3.87358 6.53916 8.05963L6.24169 8.39962C3.02234 12.7982 9.02539 17.6111 13.1797 18.3123H13.1904Z" fill="#FCC117"/>
<path fill-rule="evenodd" clip-rule="evenodd" d="M167.815 59.0679C157.998 52.5551 142.942 49.6865 126.495 48.8046C109.251 47.9865 91.6982 47.4447 74.3689 46.8285C54.3197 46.191 33.1761 45.7342 19.1193 51.0571L18.62 51.2483C-18.3654 65.4108 7.47445 107.749 29.7018 123.325C65.7415 150.428 128.407 150.014 161.929 120.467C179.439 105.582 191.509 73.8466 167.815 59.0679ZM43.2591 82.0487C33.3886 83.8868 29.9992 70.1068 39.4129 66.9726L39.9442 66.8238C49.6128 64.752 53.3634 79.977 43.2698 82.0594L43.2591 82.0487ZM79.3414 81.3263C74.5708 80.8269 71.3727 74.5797 75.1764 70.9142L75.5271 70.5637C79.0333 66.9088 85.0257 69.7243 85.8757 74.2716C86.6726 77.6821 82.8051 81.7725 79.3414 81.3263ZM114.945 81.7088C109.792 78.5745 107.083 68.7362 112.13 64.7096L112.502 64.4758C118.377 61.6709 124.572 69.3631 125.05 74.8772C125.549 80.3701 119.472 84.4605 114.945 81.7088ZM143.771 79.6794L143.42 79.3395C135.452 71.1586 150.666 56.6668 158.189 65.8464C164.713 73.6023 151.41 86.6597 143.771 79.6794Z" fill="#FCC117"/>
</svg>
