<svg width="104" height="183" viewBox="0 0 104 183" fill="none" xmlns="http://www.w3.org/2000/svg">
<path fill-rule="evenodd" clip-rule="evenodd" d="M59.2174 181.982C52.3048 187.527 44.9127 168.864 41.556 163.628C37.4754 155.919 33.3134 148.038 28.2194 140.902C16.1134 123.049 -3.42089 107.386 0.514925 84.4871C7.09271 61.1521 23.207 90.3777 31.54 96.3773C38.724 99.0954 36.2268 70.697 36.0549 61.2612C35.1139 45.2439 34.9329 22.1816 40.4069 9.48233C45.9713 -4.73503 55.6525 -1.88974 60.7012 10.8913C68.039 28.2358 65.9852 50.9981 68.3738 68.2608C69.17 73.0423 71.3324 90.9595 78.8783 85.3507C84.298 79.7056 88.0166 68.9244 92.2058 62.652C93.5901 60.6158 94.504 59.3068 96.1326 58.6159C103.317 57.7614 104.393 74.6604 103.896 80.2328C102.918 101.077 83.8004 112.858 74.4087 129.539C69.1972 138.748 67.8129 149.229 66.2566 160.174C65.1618 167.355 63.6508 177.6 59.335 181.872L59.2083 181.982H59.2174Z" fill="#9774B4"/>
</svg>
