<svg width="147" height="157" viewBox="0 0 147 157" fill="none" xmlns="http://www.w3.org/2000/svg">
<path d="M132.794 17.4767C139.67 28.7164 108.255 38.4078 101.994 42.0004C96.5788 45.1054 82.0243 55.0706 84.2536 62.2045C85.6544 66.6952 93.0256 63.2993 96.3055 62.3071C105.026 59.6725 148.416 30.1107 146.964 54.7285C146.016 70.8524 105.12 71.6906 93.3416 76.1814C88.3876 78.0717 81.7937 80.7747 81.2043 86.7196C83.0492 94.5378 130.599 95.5044 136.51 107.899C142.01 119.429 127.96 127.23 117.71 125.263C107.819 123.364 82.8443 89.5937 75.661 112.056C71.1853 126.067 86.7904 133.372 91.8725 141.9C101.934 158.794 48.5933 160.265 46.1078 152.447C42.6998 141.755 69.1439 140.737 65.6505 128.471C61.4738 115.195 31.9547 138.821 24.8654 140.797C-0.391497 147.836 -13.6648 119.857 20.9193 115.383C29.8023 114.237 76.6261 114.434 66.5986 93.7679C59.9448 80.0562 -3.16744 102.938 0.34307 79.5772C2.8884 62.7006 40.479 76.4893 51.2155 76.994C60.1157 77.4131 76.9336 77.627 72.7569 64.6166C68.4093 51.0503 44.2458 42.8472 34.4915 32.5314C9.74711 6.34822 50.8055 -17.2004 60.4829 17.2115C62.4133 24.0717 63.276 52.5472 72.68 52.4959C82.4257 48.3302 81.8876 35.7733 87.4566 27.4419C91.6248 21.2233 100.243 15.0645 107.794 14.1407C112.295 13.5847 130.574 13.8499 132.786 17.4767H132.794Z" fill="#9774B4"/>
</svg>
