<svg width="144" height="148" viewBox="0 0 144 148" fill="none" xmlns="http://www.w3.org/2000/svg">
<path d="M139.964 51.7155C149.313 59.4178 140.02 87.6638 136.101 97.4633C100.303 187.044 -6.74274 148.331 0.334954 53.2396C1.03329 43.8305 4.50607 20.711 16.7615 21.1015C35.6228 21.6998 32.4457 55.0156 34.5281 67.5484C38.4287 91.0332 56.8747 106.866 60.3916 72.7567C62.1657 55.5446 57.2585 5.74726 79.7876 0.582997C102.814 -4.69463 100.115 27.223 98.3028 41.3429C96.4091 56.1177 87.356 83.2868 89.4195 96.3927C91.0867 106.973 101.165 102.004 105.588 95.7314C113.748 84.1496 116.441 48.3461 135.648 50.0906C137.177 50.2292 138.762 50.733 139.964 51.7218V51.7155Z" fill="#9774B4"/>
</svg>
