<svg width="192" height="186" viewBox="0 0 192 186" fill="none" xmlns="http://www.w3.org/2000/svg">
<path d="M86.3784 19.0981C93.3796 20.1096 92.0147 13.6971 94.0178 9.57272C96.6985 4.04408 101.805 5.99825 100.685 12.2634C99.2221 20.4827 90.7873 28.4762 94.2338 37.7364C110.063 36.175 100.803 7.18646 118.046 9.49415C130.506 11.1635 120.825 27.0326 121.699 27.9164C127.855 29.2716 144.921 9.97533 148.505 18.3321C154.957 33.337 128.16 35.3207 119.754 38.2372C108.766 42.0572 101.952 49.4614 101.088 61.2552C108.668 62.7675 110.2 52.6234 115.748 50.9148C119.509 49.756 124.045 50.9148 127.983 50.3943C139.737 48.8231 152.796 29.2715 163.264 29.9197C167.673 30.1946 172.73 35.1144 171.021 39.396C168.851 44.8362 164.354 42.9213 160.131 44.2863C144.342 49.3632 139.923 65.2912 127.796 68.846C121.011 70.8297 113.058 68.7871 107.451 74.0015C103.641 77.5367 102.521 83.8509 107.009 87.2388C117.231 94.9573 133.393 84.4303 141.337 77.4679C151.648 68.4336 154.819 55.2847 171.247 55.3043C175.882 55.3043 181.498 57.1799 183.914 61.3534C188.794 69.7789 177.404 73.1373 178.994 79.9524C179.967 84.0964 200.047 84.1455 188.352 93.0719C174.969 103.294 168.772 86.0997 160.2 83.1046C153.189 80.6496 137.4 82.6234 140.522 92.9442C141.73 96.9213 158.226 98.0801 163.578 100.329C170.677 103.314 177.728 110.777 180.075 118.162C183.875 130.142 177.099 147.749 164.364 134.846C152.62 122.954 149.448 99.6611 127.06 98.5318C116.946 98.0211 110.986 105.18 112.773 114.803C115.601 118.29 121.1 113.164 126.569 116.718C134.258 121.717 130.556 133.893 133.884 137.851C138.342 143.164 151.107 134.355 158.04 142.142C166.642 151.805 153.287 166.967 141.946 161.173C138.401 159.366 137.419 155.183 134.817 152.522C130.585 151.334 125.744 160.948 125.086 164.188C123.898 169.982 126.981 184.839 116.524 181.707C104.937 178.231 117.948 156.892 118.655 149.929C119.106 145.452 119.411 132.617 111.889 136.29C107.706 138.332 105.212 157.874 103.552 163.265C100.832 172.113 93.8214 188.394 82.5881 185.704C82.9416 169.52 91.8379 155.183 95.7166 139.736C98.3776 129.141 101.579 110.532 100.175 99.9557C99.1534 92.1979 89.7956 90.9606 87.8023 100.447C85.75 110.237 87.7236 124.967 86.2704 136.182C84.4047 150.568 77.9436 177.317 59.3949 177.082C55.2413 177.033 49.7818 174.745 50.3316 169.766C50.6753 166.633 59.3948 159.936 61.83 156.862C63.9216 154.211 71.5512 142.898 67.761 140.149C64.0296 137.448 32.1561 161.409 25.7048 148.839C22.4153 137.979 47.6608 137.075 54.0041 135.308C59.9448 133.658 69.4498 129.072 73.4758 124.368C76.5001 120.823 81.5767 111.789 74.0944 110.326C64.8249 108.519 60.475 115.285 53.3953 119.006C45.1765 123.317 19.6266 135.465 12.0756 127.697C8.29511 123.799 13.843 119.704 17.4369 118.368C30.6046 113.478 44.499 114.646 58.6094 107.546C68.468 102.587 86.1133 89.3796 76.5689 77.4287C71.1486 74.8067 64.393 81.9949 62.0265 86.4434C57.3525 95.2126 61.2998 96.3714 50.3415 101.242C40.532 105.602 25.9601 107.959 15.2374 108.322C2.58023 108.754 -2.61419 103.805 1.25463 90.9311C1.81433 90.283 3.63086 89.7724 4.5146 89.7625C10.8873 89.6447 23.3579 96.882 31.8811 97.5793C34.6796 97.8051 40.7677 97.9327 43.2618 97.1079C46.9931 95.8804 49.1729 88.9573 47.9455 85.432C46.2467 80.5514 22.3465 78.0277 16.9066 76.2503C2.29542 71.4679 6.97931 46.9279 25.4397 55.9524C36.4078 61.3141 41.239 82.1128 56.2429 78.6856C61.0937 77.576 63.8725 71.409 59.827 67.6676C56.6259 64.7118 47.9749 63.9753 42.9082 61.049C34.9545 56.4532 27.865 44.5122 31.5276 35.3501C37.8414 19.5793 53.6014 50.1586 58.3933 55.373C64.5696 62.0997 77.4133 71.9786 85.8678 63.1995C95.638 53.0555 73.2893 47.2814 67.0638 43.756C59.552 39.4942 51.618 33.1013 51.942 23.4778C52.2366 14.7184 61.0348 11.0653 66.5729 18.7544C69.1161 22.2896 70.0391 30.175 72.1011 31.923C73.2402 32.8853 73.1027 32.5711 74.2712 32.0801C84.6404 27.7495 67.0736 8.94426 75.8521 1.72658C84.9644 -5.75623 88.2342 13.1472 86.3685 19.0784L86.3784 19.0981Z" fill="#2265C9"/>
</svg>
