<svg width="170" height="129" viewBox="0 0 170 129" fill="none" xmlns="http://www.w3.org/2000/svg">
<path d="M89.8995 29.411C97.4045 36.9728 93.0505 77.6187 108.897 74.3812C127.711 70.526 127.276 25.2011 135.892 10.5924C140.51 2.75604 149.986 -4.17653 158.041 3.01917C171.16 14.7336 172.26 70.0341 167.207 86.2788C158.717 113.574 103.855 127.005 78.2581 128.869C65.0699 129.83 12.0878 125.483 4.20461 115.885C-7.63157 101.505 7.25246 53.492 27.327 63.193C35.657 67.2199 32.7467 95.7281 51.3889 87.2168C65.4136 80.8105 64.8751 30.4063 82.4174 27.4319C84.6517 27.0544 88.3297 27.8323 89.8995 29.411Z" fill="#E40000"/>
</svg>
