<svg width="252" height="445" viewBox="0 0 252 445" fill="none" xmlns="http://www.w3.org/2000/svg">
<path d="M138.24 313.012L196.798 411.378C202.628 421.032 200.271 431.528 190.636 437.907C181.001 444.281 170.486 441.376 164.107 431.741L105.71 334.009C87.4151 302.838 93.6901 271.458 123.324 250.759L204.36 199.725C215.036 193.029 215.49 177.829 209.064 169.689C198.889 156.789 185.18 158.289 173.122 167.91L167.727 171.54C151.003 183.219 133.03 186.409 116.826 181.648L114.777 181.203C94.4994 172.093 82.1481 152.393 82.1481 126.517V60.7991C82.1481 47.6528 73.3886 38.8933 60.2422 38.8933C47.1006 38.8933 38.3364 47.6528 38.3364 60.7991V424.997C38.3364 436.497 30.6701 444.168 19.1658 444.168C7.66633 444.168 0 436.497 0 424.997V60.7991C0 24.6538 24.0969 0.556925 60.2422 0.556925C96.3923 0.556925 120.489 24.6538 120.489 60.7991V126.517L120.541 126.559C120.541 135.48 127.772 142.711 136.693 142.711C140.024 142.711 143.162 141.769 145.731 140.046L151.169 136.483C183.5 113.9 217.61 116.011 240.188 148.337C262.766 180.664 249.355 214.784 217.028 237.361L145.277 282.186C132.5 289.795 130.716 302.237 138.24 313.012Z" fill="#666565"/>
</svg>
