<svg width="136" height="141" viewBox="0 0 136 141" fill="none" xmlns="http://www.w3.org/2000/svg">
<path fill-rule="evenodd" clip-rule="evenodd" d="M131.796 4.01338C134.999 7.64897 136.012 16.2311 135.996 22.0846C136.11 56.6189 133.614 95.6957 119.97 117.105C112.726 128.629 99.7512 135.222 86.5179 138.804C28.9047 154.307 -2.78986 84.7203 0.193155 24.333C0.535593 17.6182 1.77598 4.16582 9.18024 3.58656C27.611 9.0971 14.6593 76.8318 25.7923 95.2841C27.8241 100.33 32.915 105.886 34.0717 96.9532C34.3304 70.7877 25.2977 38.4942 33.0368 15.8042C39.8475 -3.42549 49.177 5.64445 50.0749 21.4139C51.9012 45.4834 48.9334 70.4218 52.685 92.7384C53.3166 99.0721 60.2567 111.328 63.156 98.7901C64.267 92.9213 63.1028 85.734 62.3646 79.5451C59.686 57.4191 57.5325 30.1103 61.7026 9.55442C66.7783 -7.41164 77.5765 0.766492 78.8854 14.3332C81.3661 37.3129 78.2613 63.4327 79.7528 87.6623C79.6387 91.7476 83.1468 109.133 86.6016 97.6697C87.743 92.9975 87.8572 86.9383 87.6974 81.824C86.807 58.4405 85.5286 31.6118 89.5085 12.6336C90.688 5.05756 98.7163 -5.31566 103.396 6.29991C104.873 9.98885 105.352 14.8896 105.337 19.2036C104.873 42.1984 103.762 65.5363 103.343 88.6227C102.978 99.8648 107.338 109.964 113.19 93.6606C119.871 70.6353 117.269 42.45 120.168 18.9139C120.724 13.5101 124.277 -1.93158 131.583 3.79237L131.788 4.01338H131.796Z" fill="#9774B4"/>
</svg>
