<svg width="99" height="154" viewBox="0 0 99 154" fill="none" xmlns="http://www.w3.org/2000/svg">
<path fill-rule="evenodd" clip-rule="evenodd" d="M75.0168 0.391529C93.267 -3.30636 96.3782 20.2033 97.2722 28.2789C99.7159 63.4051 100.848 108.504 91.6816 142.966C87.1876 154.567 76.9241 158.34 69.6884 147.829C62.715 137.774 62.5123 124.23 61.8924 112.927C60.9388 88.1697 59.8897 63.3528 59.0195 38.6255C59.2699 26.6204 58.3639 8.0189 74.7783 0.473716L75.0049 0.399007L75.0168 0.391529Z" fill="#E40000"/>
<path fill-rule="evenodd" clip-rule="evenodd" d="M14.0214 3.57512C28.728 3.38052 32.0918 28.1766 33.1422 35.9455C33.815 59.1323 51.0002 127.75 28.185 142.412C-5.85483 153.729 0.766642 53.0849 0.141083 38.5949C0.825657 29.1121 -0.0241874 8.27537 13.8325 3.59757L14.0332 3.56763L14.0214 3.57512Z" fill="#E40000"/>
</svg>
