<svg width="157" height="156" viewBox="0 0 157 156" fill="none" xmlns="http://www.w3.org/2000/svg">
<path d="M95.3602 0.113884C100.587 16.0993 88.4288 30.4043 84.8973 45.6771C82.6747 55.3018 81.1461 67.0818 82.3145 76.8825C82.7186 80.2608 88.0862 102.58 91.7847 92.5072C101.281 66.6332 95.3953 20.6213 129.542 11.5157L129.56 20.9996L139.03 17.2078L139.065 26.7093L151.487 20.9996C170.304 21.2283 135.042 52.7944 133.46 54.8179C121.882 69.7299 106.262 96.9236 103.469 115.601C102.933 119.164 100.939 155.886 98.2328 156C79.4155 118.962 31.643 102.405 7.07153 70.4778C-8.25818 50.5598 3.86504 41.7621 19.4319 60.9323L15.672 41.9205L25.1246 47.6214L26.0294 38.0583C28.0412 34.7592 30.9841 36.9322 33.4176 38.3838C42.9756 44.0935 44.6623 71.2783 52.0329 82.4778C53.702 85.0115 68.4519 101.234 70.6921 98.9471C62.3288 68.3399 41.9477 36.7475 61.2395 5.81482C63.8574 5.26056 64.3493 6.00832 65.9043 7.75026C69.3655 11.6212 66.9409 17.5773 70.6745 19.0993C72.1416 11.3309 76.3847 0.166671 81.1286 11.4981C85.2575 6.94968 87.6294 -1.04741 95.3426 0.113884H95.3602Z" fill="#9774B4"/>
</svg>
