<svg width="195" height="176" viewBox="0 0 195 176" fill="none" xmlns="http://www.w3.org/2000/svg">
<path d="M96.0441 1.06672C105.056 26.7826 88.4507 52.4172 93.2533 78.6212C94.672 86.372 103.835 88.7309 107.649 83.9201L124.348 1.05513C130.034 0.253322 128.976 0.601908 130.72 4.5877C137.186 19.3688 113.766 82.5605 131.686 85.5353C151.303 88.7774 141.802 12.9311 152.384 5.13386C155.152 3.10029 157.966 3.90211 160.989 3.87887C161.094 10.8046 161.303 17.7187 160.641 24.6677C159.582 35.8465 145.314 77.4359 159.92 79.8762C178.641 83.0137 175.804 1.31075 187.816 1.10158C200.701 9.57284 192.386 20.2171 192.072 30.6987C191.433 52.4753 194.91 82.7813 170.618 93.8671C145.814 105.174 119.452 90.4507 110.987 124.545C108.277 135.445 109.336 175.965 97.521 176C82.7528 176.035 95.0209 135.898 94.5441 126.532C92.2184 80.5618 22.3311 111.832 5.1674 76.4133C-0.763138 64.1654 -5.51918 -1.08304 14.2377 10.7349C29.5175 27.0499 7.46984 74.3797 31.1106 81.7354C54.4025 88.9749 48.6464 32.2326 52.1931 20.6703C53.4606 16.5451 58.4492 9.58449 63.589 9.54962C81.0434 13.059 42.8321 85.5121 71.822 85.5121C77.3455 83.862 80.8225 67.1518 81.683 61.4114C82.3923 56.6005 82.09 -9.14758 96.0674 1.07836L96.0441 1.06672Z" fill="#99C8C8"/>
</svg>
