<svg width="253" height="79" viewBox="0 0 253 79" fill="none" xmlns="http://www.w3.org/2000/svg">
<path fill-rule="evenodd" clip-rule="evenodd" d="M249.947 9.78134L249.738 9.5389C234.909 -3.8367 207.637 0.664928 182.373 0.972041C138.843 2.74198 89.3515 5.18271 47.4675 3.73605C28.7828 3.24305 15.5203 1.36806 5.27023 7.03349C-10.4503 18.8735 12.9257 42.303 24.2522 50.5223C82.4511 91.8129 204.127 90.0915 247.553 32.9037C253.738 23.8439 254.823 15.4629 249.947 9.78134ZM89.9137 36.7992C80.0894 46.6511 63.5656 29.7841 72.8035 19.8595L73.157 19.4878C84.2103 8.52865 101.313 26.22 89.9137 36.7992ZM129.131 33.9544C119.628 37.47 99.4409 23.9409 117.089 17.8471L117.668 17.6693C124.544 15.269 135.951 16.9823 136.569 25.5734C136.722 29.5417 133.075 33.0654 129.123 33.9544H129.131ZM171.874 40.3149C168.219 41.0988 165.408 37.8903 163.745 34.8434C161.03 30.1882 161.335 23.6176 164.958 19.7059L165.287 19.3504C170.436 13.4667 178.068 18.7684 179.233 25.1774C180.919 31.4086 176.22 39.4824 171.882 40.3149H171.874Z" fill="#F584B5"/>
</svg>
