<svg width="153" height="155" viewBox="0 0 153 155" fill="none" xmlns="http://www.w3.org/2000/svg">
<path d="M54.0893 102.497C57.4576 133.259 75.1911 142.916 73.9217 100.43C73.2053 76.4507 65.1116 34.8344 68.1028 13.5408C68.5426 10.4016 70.2267 4.13585 72.6775 2.2826C75.1785 0.391518 83.8128 -0.717915 85.4843 0.706698C89.8203 4.388 84.9062 76.1607 85.6101 88.7049C85.962 94.9833 88.463 127.232 94.5836 127.207C95.7273 125.883 97.8136 124.761 98.4923 123.249C101.773 116.088 99.259 67.1718 99.4223 54.8671C99.5732 42.9786 98.1655 26.3371 99.6862 15.5075C101.496 2.62298 115.673 -7.43756 117.369 7.31286C119.33 24.2191 117.973 53.0265 117.357 70.8783C117.005 81.1658 109.59 119.857 116.1 125.442C117.885 126.98 120.838 128.165 122.95 126.968C131.383 122.202 129.925 59.7462 131.119 47.0381C131.923 38.4526 135.329 4.9679 144.303 2.64818C149.632 1.72785 152.962 6.32951 153 11.3472C143.335 49.3326 161.647 117.273 126.155 143.067C100.352 161.839 42.3382 158.65 22.5058 132.174C8.19077 113.075 -3.93742 34.683 1.20291 11.7758C4.82252 -4.38665 17.2649 2.71122 18.6348 19.2014C20.8845 46.3573 17.1644 71.9121 23.0085 99.9883C24.944 109.292 28.3122 124.068 38.2661 127.232C38.4923 123.349 41.5338 120.765 41.6595 116.756C42.0617 104.161 35.2121 81.3801 34.37 66.7936C33.5908 53.2913 32.9876 17.096 42.1497 7.30024C47.0009 2.11868 50.1932 4.56449 54.0893 9.36783C56.4521 39.0326 50.9096 73.4123 54.0893 102.459V102.497Z" fill="#E40000"/>
</svg>
