<svg width="168" height="177" viewBox="0 0 168 177" fill="none" xmlns="http://www.w3.org/2000/svg">
<path d="M83.5264 1.02367C85.1095 1.98229 84.8904 8.22328 91.1432 8.87234L109.493 1.18344C128.998 16.2717 106.228 24.3899 98.2224 34.4354C90.954 43.5523 80.7883 80.1494 79.9619 92.1521C79.3944 100.36 85.9359 104.624 91.8402 100.81C93.6125 99.6613 100.96 66.2495 103.36 60.0884C110.409 41.8947 130.273 14.0648 147.378 38.6593C148.792 49.0643 133.708 58.8602 128.043 66.3893C119.121 78.2522 93.0748 124.495 102.175 137.127L107.074 139.733C120.665 138.455 136.645 89.5958 151.301 87.5987C160.74 88.3676 154.328 97.085 156.339 101.079C158.679 105.743 166.167 103.366 167.809 110.366C170.448 121.63 144.949 128.03 137.014 134.841C126.081 144.217 112.739 175.572 99.0687 176.94C88.0268 178.048 76.6264 163.509 64.2603 162.66C54.4928 161.991 37.8652 170.639 29.6111 164.757C21.9544 159.305 38.602 152.255 24.5432 147.153L26.6341 141.012C42.9928 136.378 57.0317 151.137 73.6992 148.221C73.7987 145.415 73.3805 141.661 71.8273 139.344C70.2741 137.027 30.5869 122.538 22.8505 118.244C17.6631 115.369 -0.0198965 105.932 1.68051e-05 100.031C0.0199301 93.0109 12.864 97.3946 9.93676 86.1807C8.85148 82.0267 -1.71252 73.9184 9.36923 72.2409C20.0527 70.6332 31.941 93.5601 39.9262 101.119C45.7508 106.631 67.1078 124.585 73.9381 116.507C76.5467 113.262 73.3208 109.208 71.6282 106.222C61.3927 88.1579 13.6705 54.6662 14.2579 36.5324C14.5467 27.835 21.6159 19.5669 30.8059 24.1403C37.9548 27.6952 52.2724 70.3436 61.8209 78.0924L69.7862 77.6231C78.6675 71.3422 64.5092 23.2516 65.6741 12.0178C66.5005 4.06927 77.5723 -2.6011 83.5662 1.0037L83.5264 1.02367Z" fill="#FB5E00"/>
</svg>
